<svg width="125" height="25" viewBox="0 0 125 25" fill="none" xmlns="http://www.w3.org/2000/svg">
<g clip-path="url(#clip0_1_1887)">
<path fill-rule="evenodd" clip-rule="evenodd" d="M112.494 17.7625L106.337 21.5438C105.597 22 105.156 21.6938 105.356 20.8516L107.034 13.7734L101.555 9.05156C100.895 8.48438 101.048 7.96875 101.93 7.89531L109.12 7.31719L111.898 0.598438C112.227 -0.198437 112.758 -0.201562 113.089 0.598438L115.87 7.31719L123.061 7.89531C123.923 7.96719 124.102 8.47344 123.431 9.05156L117.952 13.7703L119.631 20.8516C119.83 21.6891 119.402 22.0078 118.65 21.5453L112.494 17.7609V17.7625ZM87.4937 17.7625L81.3375 21.5438C80.5969 22 80.1562 21.6938 80.3562 20.8516L82.0344 13.7734L76.5547 9.05156C75.8953 8.48438 76.0484 7.96875 76.9297 7.89531L84.1203 7.31719L86.8984 0.598438C87.2266 -0.198437 87.7578 -0.201562 88.0891 0.598438L90.8703 7.31719L98.0609 7.89531C98.9234 7.96719 99.1015 8.47344 98.4312 9.05156L92.9516 13.7703L94.6312 20.8516C94.8297 21.6891 94.4016 22.0078 93.65 21.5453L87.4937 17.7609V17.7625ZM62.6922 17.7625L56.5359 21.5438C55.7937 22 55.3547 21.6938 55.5516 20.8516L57.2328 13.7734L51.7515 9.05156C51.0922 8.48438 51.2453 7.96875 52.1266 7.89531L59.3172 7.31719L62.0953 0.598438C62.4234 -0.198437 62.9547 -0.201562 63.2859 0.598438L66.064 7.31719L73.2562 7.89531C74.1219 7.96719 74.2984 8.47344 73.6312 9.05156L68.15 13.7703L69.8297 20.8516C70.0281 21.6891 69.6 22.0078 68.8484 21.5453L62.6922 17.7609V17.7625ZM37.6187 17.7625L31.4625 21.5438C30.7203 22 30.2797 21.6938 30.4781 20.8516L32.1594 13.7734L26.6797 9.05156C26.0203 8.48438 26.1734 7.96875 27.0516 7.89531L34.2437 7.31719L37.025 0.598438C37.3531 -0.198437 37.8844 -0.201562 38.2125 0.598438L40.9937 7.31719L48.1844 7.89531C49.05 7.96719 49.2266 8.47344 48.5594 9.05156L43.0781 13.7703L44.7562 20.8516C44.9547 21.6891 44.5281 22.0078 43.775 21.5453L37.6187 17.7609V17.7625ZM12.6922 17.7625L6.53593 21.5438C5.79374 22 5.35468 21.6938 5.55155 20.8516L7.2328 13.7734L1.74999 9.05C1.09061 8.48281 1.24374 7.96719 2.12499 7.89375L9.31561 7.31563L12.0937 0.596876C12.4219 -0.199999 12.9531 -0.203124 13.2844 0.596876L16.0625 7.31563L23.2547 7.89375C24.1203 7.96563 24.2969 8.47188 23.6297 9.05L18.1484 13.7688L19.8281 20.85C20.0266 21.6875 19.5984 22.0063 18.8469 21.5438L12.6906 17.7594L12.6922 17.7625Z" fill="#E5E5E5"/>
</g>
<g clip-path="url(#clip1_1_1887)">
<path fill-rule="evenodd" clip-rule="evenodd" d="M112.494 17.7625L106.337 21.5438C105.597 22 105.156 21.6938 105.356 20.8516L107.034 13.7734L101.555 9.05156C100.895 8.48438 101.048 7.96875 101.93 7.89531L109.12 7.31719L111.898 0.598438C112.227 -0.198437 112.758 -0.201562 113.089 0.598438L115.87 7.31719L123.061 7.89531C123.923 7.96719 124.102 8.47344 123.431 9.05156L117.952 13.7703L119.631 20.8516C119.83 21.6891 119.402 22.0078 118.65 21.5453L112.494 17.7609V17.7625ZM87.4937 17.7625L81.3375 21.5438C80.5969 22 80.1562 21.6938 80.3562 20.8516L82.0344 13.7734L76.5547 9.05156C75.8953 8.48438 76.0484 7.96875 76.9297 7.89531L84.1203 7.31719L86.8984 0.598438C87.2266 -0.198437 87.7578 -0.201562 88.0891 0.598438L90.8703 7.31719L98.0609 7.89531C98.9234 7.96719 99.1015 8.47344 98.4312 9.05156L92.9516 13.7703L94.6312 20.8516C94.8297 21.6891 94.4016 22.0078 93.65 21.5453L87.4937 17.7609V17.7625ZM62.6922 17.7625L56.5359 21.5438C55.7937 22 55.3547 21.6938 55.5516 20.8516L57.2328 13.7734L51.7515 9.05156C51.0922 8.48438 51.2453 7.96875 52.1266 7.89531L59.3172 7.31719L62.0953 0.598438C62.4234 -0.198437 62.9547 -0.201562 63.2859 0.598438L66.064 7.31719L73.2562 7.89531C74.1219 7.96719 74.2984 8.47344 73.6312 9.05156L68.15 13.7703L69.8297 20.8516C70.0281 21.6891 69.6 22.0078 68.8484 21.5453L62.6922 17.7609V17.7625ZM37.6187 17.7625L31.4625 21.5438C30.7203 22 30.2797 21.6938 30.4781 20.8516L32.1594 13.7734L26.6797 9.05156C26.0203 8.48438 26.1734 7.96875 27.0516 7.89531L34.2437 7.31719L37.025 0.598438C37.3531 -0.198437 37.8844 -0.201562 38.2125 0.598438L40.9937 7.31719L48.1844 7.89531C49.05 7.96719 49.2266 8.47344 48.5594 9.05156L43.0781 13.7703L44.7562 20.8516C44.9547 21.6891 44.5281 22.0078 43.775 21.5453L37.6187 17.7609V17.7625ZM12.6922 17.7625L6.53593 21.5438C5.79374 22 5.35468 21.6938 5.55155 20.8516L7.2328 13.7734L1.74999 9.05C1.09061 8.48281 1.24374 7.96719 2.12499 7.89375L9.31561 7.31563L12.0937 0.596876C12.4219 -0.199999 12.9531 -0.203124 13.2844 0.596876L16.0625 7.31563L23.2547 7.89375C24.1203 7.96563 24.2969 8.47188 23.6297 9.05L18.1484 13.7688L19.8281 20.85C20.0266 21.6875 19.5984 22.0063 18.8469 21.5438L12.6906 17.7594L12.6922 17.7625Z" fill="#FFB829"/>
</g>
<defs>
<clipPath id="clip0_1_1887">
<rect width="125" height="21.875" fill="white"/>
</clipPath>
<clipPath id="clip1_1_1887">
<rect width="125" height="21.875" fill="white"/>
</clipPath>
</defs>
</svg>
