<svg width="82" height="83" viewBox="0 0 82 83" fill="none" xmlns="http://www.w3.org/2000/svg">
<g clip-path="url(#clip0_1_922)">
<g clip-path="url(#clip1_1_922)">
<path fill-rule="evenodd" clip-rule="evenodd" d="M50.1318 56.158C54.6341 54.3327 59.4404 53.3985 63.8978 51.4494C65.7625 50.6327 67.3171 48.8806 69.1631 48.026C71.2829 47.0413 71.1466 47.4112 70.7964 45.4003C70.53 43.8615 69.3669 42.0992 68.7428 40.6614C67.3721 37.5068 65.9989 34.3522 64.6257 31.1976C63.8365 29.3823 62.7184 24.4339 61.1526 23.2069C59.6781 22.0531 55.2932 25.4185 53.3247 26.0068C50.557 26.8336 46.4536 29.2611 43.0167 30.8883C42.534 31.118 42.04 31.3503 41.5084 31.4109C39.5324 31.6419 36.2044 27.9508 34.5072 27.0444C31.772 25.5826 29.2895 25.339 26.5543 23.8785C25.6601 23.4 24.3018 22.2866 23.2963 22.1389C21.9981 21.9458 22.5459 21.7754 21.5116 22.933C19.3918 25.3062 18.2749 29.227 16.9167 32.0724C15.0545 35.973 13.1922 39.875 11.33 43.7744C11.0986 44.2591 10.866 44.8259 11.0924 45.3132C11.2612 45.6729 11.6377 45.8774 11.9903 46.0567C15.0595 47.6195 18.2737 48.8982 21.3753 50.3979C25.7889 52.5313 30.0987 54.8666 34.5122 57C34.1446 56.822 35.5616 52.7345 35.8267 52.3583C36.7759 51.0253 37.0849 51.3131 38.6157 50.764C40.4666 50.0975 40.9381 47.6738 42.3426 46.2864C42.5065 46.1249 42.7041 45.9696 42.9317 45.9645C43.1456 45.9608 43.3394 46.0895 43.502 46.2322C44.7577 47.3203 45.1729 49.3565 46.7212 49.9485C47.219 50.1379 47.7693 50.1429 48.2733 50.3196C50.3581 51.0505 50.4332 53.9603 50.1318 56.158Z" stroke="black" stroke-width="2.5" stroke-linecap="round" stroke-linejoin="round"/>
<path d="M40 59C40 59.552 39.5509 60 39 60C38.448 60 38 59.552 38 59C38 58.448 38.448 58 39 58C39.5509 58 40 58.448 40 59ZM48 60C48 60.5509 47.552 61 47 61C46.448 61 46 60.5509 46 60C46 59.448 46.448 59 47 59C47.552 59 48 59.448 48 60ZM44.2342 54.028C44.771 54.1571 45.1011 54.6977 44.972 55.2349C44.8418 55.7709 44.3027 56.1012 43.7658 55.972C43.229 55.8429 42.8989 55.3023 43.028 54.7663C43.1582 54.2291 43.6973 53.8988 44.2342 54.028Z" fill="black"/>
<path d="M14 40L17 41" stroke="black" stroke-width="2.5" stroke-linecap="round" stroke-linejoin="round"/>
<path d="M19 31L22 32" stroke="black" stroke-width="2.5" stroke-linecap="round" stroke-linejoin="round"/>
<path d="M16 36L19 37" stroke="black" stroke-width="2.5" stroke-linecap="round" stroke-linejoin="round"/>
<path d="M21 26L24 27" stroke="black" stroke-width="2.5" stroke-linecap="round" stroke-linejoin="round"/>
<path d="M62 27L59 28" stroke="black" stroke-width="2.5" stroke-linecap="round" stroke-linejoin="round"/>
<path d="M66 37L63 38" stroke="black" stroke-width="2.5" stroke-linecap="round" stroke-linejoin="round"/>
<path d="M64 32L61 33" stroke="black" stroke-width="2.5" stroke-linecap="round" stroke-linejoin="round"/>
<path d="M68 42L65 43" stroke="black" stroke-width="2.5" stroke-linecap="round" stroke-linejoin="round"/>
<mask id="mask0_1_922" style="mask-type:luminance" maskUnits="userSpaceOnUse" x="42" y="63" width="3" height="2">
<path d="M42.121 63.251H44.455V65H42.121V63.251Z" fill="white"/>
</mask>
<g mask="url(#mask0_1_922)">
<path d="M44.4545 64.1255C44.4545 64.6075 43.9319 65.0005 43.2879 65.0005C42.6439 65.0005 42.1212 64.6075 42.1212 64.1255C42.1212 63.6425 42.6439 63.2505 43.2879 63.2505C43.9319 63.2505 44.4545 63.6425 44.4545 64.1255Z" fill="black"/>
</g>
<path fill-rule="evenodd" clip-rule="evenodd" d="M72.6169 15.2635C74.2837 17.7015 75.421 20.4295 76.3942 23.1827C80.0131 33.4212 81.4808 44.5702 78.7669 54.9748C76.053 65.3795 68.7568 74.9117 58.4166 79.0094C44.1561 84.6613 27.5932 79.2589 14.0334 71.8571C10.7874 70.0853 3.01744 62.9593 2.30451 54.2684C1.72157 47.162 1.77561 40.0142 2.56159 32.9449C3.45879 24.8776 5.49651 16.4824 11.3051 10.6331C17.0226 4.87589 25.704 1.11079 33.9941 2.19721C54.4767 4.8815 67.351 9.23692 72.6169 15.2635Z" stroke="black" stroke-width="2.5"/>
<path d="M10.9636 68L72 15" stroke="black" stroke-width="2.5" stroke-linecap="square"/>
</g>
</g>
<defs>
<clipPath id="clip0_1_922">
<rect width="82" height="83" fill="white"/>
</clipPath>
<clipPath id="clip1_1_922">
<rect width="82" height="83" fill="white"/>
</clipPath>
</defs>
</svg>
