<svg width="16" height="21" viewBox="0 0 16 21" fill="none" xmlns="http://www.w3.org/2000/svg">
<path d="M9.0573 15.1608V1.60066C9.0573 1.3717 8.90179 1.17199 8.67981 1.1159L7.31041 0.769829C7.04268 0.702171 6.7708 0.864359 6.70314 1.13208C6.69253 1.17406 6.68742 1.21724 6.68794 1.26054L6.85305 15.1377L3.04756 12.6291C2.83443 12.4364 2.48796 12.4364 2.27483 12.6291L1.50211 13.3301C1.28898 13.5228 1.28898 13.8375 1.50211 14.0291L7.87027 19.932C8.0834 20.1247 8.42987 20.1247 8.643 19.932L14.4434 14.0302C14.6565 13.8375 14.6565 13.5239 14.4434 13.3291L13.6706 12.6291C13.4575 12.4364 13.111 12.4364 12.8979 12.6291L9.0573 15.1608Z" fill="#00CB62"/>
</svg>
