<svg width="85" height="80" viewBox="0 0 85 80" fill="none" xmlns="http://www.w3.org/2000/svg">
<g clip-path="url(#clip0_1_901)">
<g clip-path="url(#clip1_1_901)">
<path d="M76 42.5176H17.7277M52.4926 43.3799C52.4926 53.038 45.8727 59.2258 35.1878 61.6988C25.7782 63.875 17.6995 53.8687 17.6995 44.2105C17.6995 44.2105 14.9014 37.2152 20.4977 34.4171C20.4977 34.4171 20.8479 27.9461 25.0451 27.9461C25.0451 27.9461 24.5197 20.9508 31.6902 21.8255C31.6902 21.8255 33.0976 19.2497 35.8874 19.0263C40.2586 18.6771 41.4836 21.8255 41.4836 21.8255C41.4836 21.8255 47.1501 21.6262 46.8953 27.986C46.8953 27.986 51.9199 29.0683 50.33 35.2372C50.33 35.2372 53.6378 37.7815 51.9839 42.4884" stroke="black" stroke-width="2.5" stroke-linecap="round" stroke-linejoin="round"/>
<path d="M40.0529 34.3934C40.0529 33.7254 40.5949 33.1834 41.2629 33.1834C41.9309 33.1834 42.4729 33.7254 42.4729 34.3934C42.4729 35.0624 41.9309 35.6034 41.2629 35.6034C40.5949 35.6034 40.0529 35.0624 40.0529 34.3934ZM37.9221 28.2732C37.9221 27.6052 38.4641 27.0632 39.1321 27.0632C39.8001 27.0632 40.3421 27.6052 40.3421 28.2732C40.3421 28.9412 39.8001 29.4832 39.1321 29.4832C38.4641 29.4832 37.9221 28.9412 37.9221 28.2732ZM34.5256 33.368C34.5256 32.7 35.0676 32.158 35.7356 32.158C36.4036 32.158 36.9456 32.7 36.9456 33.368C36.9456 34.036 36.4036 34.578 35.7356 34.578C35.0676 34.578 34.5256 34.036 34.5256 33.368Z" fill="black"/>
<path fill-rule="evenodd" clip-rule="evenodd" d="M62.8619 3.72233C65.2917 5.40109 67.3311 7.54036 69.2263 9.76194C76.274 18.0234 81.6396 27.906 82.8347 38.5921C84.0297 49.2782 80.6342 60.7921 72.4493 68.3232C61.1614 78.7102 43.7625 79.6022 28.4508 77.5514C24.7855 77.0606 14.9779 73.1924 11.1977 65.3342C8.10684 58.9088 5.59573 52.2164 3.79608 45.3349C1.74265 37.4819 0.636454 28.9141 3.96304 21.3717C7.23757 13.9479 13.9931 7.32172 22.1219 5.3651C42.206 0.530764 55.7861 -0.0168235 62.8619 3.72233Z" stroke="black" stroke-width="2.5"/>
<path d="M12.9636 66L70 12" stroke="black" stroke-width="2.5" stroke-linecap="square"/>
</g>
</g>
<defs>
<clipPath id="clip0_1_901">
<rect width="85" height="80" fill="white"/>
</clipPath>
<clipPath id="clip1_1_901">
<rect width="85" height="80" fill="white"/>
</clipPath>
</defs>
</svg>
