<svg width="85" height="80" viewBox="0 0 85 80" fill="none" xmlns="http://www.w3.org/2000/svg">
<g clip-path="url(#clip0_1_958)">
<g clip-path="url(#clip1_1_958)">
<path d="M41.5196 79.9933C38.6872 79.9199 35.8616 79.6797 33.0575 79.2739C30.6082 78.9561 27.9883 78.8323 25.5959 78.1999C17.793 76.1454 11.8438 71.4041 8.59143 63.6715C5.43278 56.1596 2.74258 48.5173 1.31383 40.4869C0.219684 34.3536 -0.158417 28.1468 2.16372 22.2076C5.99491 12.397 12.8108 5.77527 23.3039 3.40629C31.8396 1.47898 40.4623 -0.0802653 49.2322 3.92194e-05C53.2474 0.0368454 57.2794 0.833198 61.2544 1.55259C64.0249 2.06119 66.1329 4.01526 67.9833 6.02288C75.649 14.3377 81.5079 23.6832 83.7096 34.966C85.6971 45.0709 84.1412 54.6171 78.6102 63.3369C73.7953 70.9256 66.6549 75.4361 58.1393 77.9088C54.007 79.11 49.6906 79.5818 45.4244 79.893C44.0726 79.9699 42.7844 80.0134 41.5196 79.9933ZM41.3724 77.2931C45.0015 77.2436 48.6229 76.9418 52.2101 76.3897C59.5714 75.2721 66.3705 72.6421 71.7275 67.3354C80.9391 58.2108 83.3549 47.0116 80.8253 34.5945C78.9214 25.2458 74.0831 17.3625 68.0201 10.1686C65.3633 6.98988 62.4791 4.1491 58.1527 3.48994C55.9543 3.15534 53.7426 2.77389 51.5275 2.71032C42.3963 2.45602 33.4892 4.12568 24.5854 5.90577C16.2203 7.57877 10.3447 12.3602 6.27263 19.6244C3.01026 25.4633 2.79277 31.7404 3.7397 38.1447C5.05803 47.0618 7.91218 55.544 11.6463 63.6949C14.8083 70.6078 20.6404 74.4021 27.7775 75.9848C32.2448 76.9355 36.8058 77.3745 41.3724 77.2931Z" fill="black"/>
<path d="M27.2622 23.0674C26.7101 30.0639 26.1681 37.1207 26.9477 44.1306C27.5767 49.7954 28.701 57.6284 33.8505 61.0782C38.2204 64.0059 44.6281 63.9758 49.3091 61.8545C51.568 60.8628 53.4731 59.2097 54.7732 57.1131C56.396 54.3995 56.5968 51.174 56.7005 48.0956C56.9849 39.5164 56.9381 30.9238 56.6269 22.348C56.5566 20.4173 53.5452 20.4073 53.6155 22.348C53.8497 28.8348 53.9222 35.3272 53.833 41.8252C53.756 47.0416 54.7431 54.3259 50.0754 57.9296C46.3948 60.7804 40.4188 61.1384 36.3065 59.0304C33.7669 57.7322 32.5958 55.2093 31.7559 52.6161C30.8161 49.6612 30.1925 46.6148 29.8955 43.5283C29.2263 36.7192 29.7383 29.8665 30.2736 23.0674C30.4275 21.1334 27.4128 21.1434 27.2622 23.0674Z" fill="black"/>
</g>
</g>
<defs>
<clipPath id="clip0_1_958">
<rect width="85" height="80" fill="white"/>
</clipPath>
<clipPath id="clip1_1_958">
<rect width="85" height="80" fill="white"/>
</clipPath>
</defs>
</svg>
