<svg width="375" height="25" viewBox="0 0 375 25" fill="none" xmlns="http://www.w3.org/2000/svg">
<g clip-path="url(#clip0_1_1130)">
<path d="M319.724 17.893C324.162 17.893 327.76 14.2952 327.76 9.85705C327.76 5.41888 324.162 1.82104 319.724 1.82104C315.286 1.82104 311.688 5.41888 311.688 9.85705C311.688 14.2952 315.286 17.893 319.724 17.893Z" stroke="black" stroke-width="2"/>
<path d="M325.871 16.0043L331.482 21.6152" stroke="black" stroke-width="2" stroke-linecap="round"/>
</g>
<g clip-path="url(#clip1_1_1130)">
<path d="M373.01 20.8213C373.01 19.0264 371.555 17.5713 369.76 17.5713C367.965 17.5713 366.51 19.0264 366.51 20.8213C366.51 22.6163 367.965 24.0713 369.76 24.0713C371.555 24.0713 373.01 22.6163 373.01 20.8213ZM368.486 20.8213C368.486 20.1034 369.068 19.5213 369.786 19.5213C370.504 19.5213 371.086 20.1034 371.086 20.8213C371.086 21.5393 370.504 22.1213 369.786 22.1213C369.068 22.1213 368.486 21.5393 368.486 20.8213ZM373.938 5.2052H355.805L355.187 2.58281C354.954 1.57051 354.084 0.856695 353.084 0.857056H349.794C349.282 0.857056 348.867 1.2887 348.867 1.82117C348.867 2.35363 349.282 2.78528 349.794 2.78528H353.099C353.246 2.78121 353.375 2.88453 353.408 3.03273L355.904 13.9304C356.27 15.5212 357.637 16.6431 359.209 16.6428H369.749C371.319 16.6401 372.683 15.5189 373.048 13.9304L374.84 6.4007C374.908 6.11304 374.846 5.80867 374.67 5.57528C374.495 5.3419 374.226 5.20543 373.941 5.2052H373.938ZM371.251 13.4773C371.08 14.1941 370.462 14.6979 369.752 14.6985H359.209C358.495 14.6979 357.874 14.1875 357.708 13.4644L356.25 7.13342H372.755L371.251 13.4773ZM359.546 24.0713C361.341 24.0713 362.796 22.6163 362.796 20.8213C362.796 19.0264 361.341 17.5713 359.546 17.5713C357.751 17.5713 356.296 19.0264 356.296 20.8213C356.296 22.6163 357.751 24.0713 359.546 24.0713ZM359.546 19.5473C360.264 19.5473 360.846 20.1294 360.846 20.8473C360.846 21.5653 360.264 22.1473 359.546 22.1473C358.828 22.1473 358.246 21.5653 358.246 20.8473C358.246 20.1294 358.828 19.5473 359.546 19.5473Z" fill="black"/>
</g>
<g clip-path="url(#clip2_1_1130)">
<path d="M281.804 0.0656742C283.373 0.0652196 284.901 0.540582 286.163 1.42199C287.425 2.3034 288.355 3.54443 288.817 4.96293C289.279 6.38144 289.248 7.90271 288.729 9.30346C288.211 10.7042 287.231 11.9107 285.934 12.7457C288.185 13.527 290.137 14.9278 291.54 16.7679C292.942 18.608 293.731 20.8031 293.803 23.0708C293.81 23.1967 293.79 23.3225 293.745 23.4411C293.7 23.5596 293.63 23.6684 293.54 23.761C293.449 23.8536 293.34 23.9282 293.219 23.9805C293.098 24.0327 292.967 24.0616 292.834 24.0653C292.701 24.069 292.568 24.0475 292.444 24.002C292.319 23.9566 292.206 23.8881 292.11 23.8007C292.014 23.7132 291.938 23.6085 291.885 23.4927C291.833 23.3769 291.805 23.2523 291.804 23.1263C291.725 20.6671 290.636 18.3338 288.77 16.6208C286.903 14.9079 284.405 13.9499 281.805 13.9499C279.205 13.9499 276.707 14.9079 274.84 16.6208C272.974 18.3338 271.885 20.6671 271.806 23.1263C271.798 23.3774 271.685 23.6151 271.492 23.7873C271.298 23.9595 271.041 24.052 270.775 24.0445C270.51 24.0369 270.259 23.93 270.077 23.7472C269.895 23.5643 269.797 23.3206 269.805 23.0695C269.878 20.8021 270.667 18.6072 272.069 16.7674C273.472 14.9275 275.424 13.5269 277.675 12.7457C276.378 11.9107 275.398 10.7042 274.879 9.30346C274.36 7.90271 274.329 6.38144 274.791 4.96293C275.253 3.54443 276.184 2.3034 277.446 1.42199C278.708 0.540582 280.236 0.0652196 281.804 0.0656742ZM276.469 7.00709C276.469 8.34598 277.031 9.63004 278.032 10.5768C279.032 11.5235 280.389 12.0554 281.804 12.0554C283.219 12.0554 284.576 11.5235 285.577 10.5768C286.577 9.63004 287.14 8.34598 287.14 7.00709C287.14 5.6682 286.577 4.38414 285.577 3.4374C284.576 2.49066 283.219 1.95879 281.804 1.95879C280.389 1.95879 279.032 2.49066 278.032 3.4374C277.031 4.38414 276.469 5.6682 276.469 7.00709Z" fill="#111111"/>
</g>
<defs>
<clipPath id="clip0_1_1130">
<rect width="23" height="23" fill="white" transform="translate(309.867)"/>
</clipPath>
<clipPath id="clip1_1_1130">
<rect width="26" height="25" fill="white" transform="translate(348.867)"/>
</clipPath>
<clipPath id="clip2_1_1130">
<rect width="24" height="24" fill="white" transform="translate(269.805 0.0656738)"/>
</clipPath>
</defs>
</svg>
