<svg width="384" height="32" viewBox="0 0 384 32" fill="none" xmlns="http://www.w3.org/2000/svg">
<rect width="32" height="32" rx="16" fill="black"/>
<g clip-path="url(#clip0_1_1075)">
<path d="M16 11.5467C18.1031 11.5467 18.35 11.5561 19.1812 11.5936C19.95 11.6279 20.3656 11.7561 20.6437 11.8654C21.0125 12.0092 21.275 12.1779 21.55 12.4529C21.825 12.7279 21.9969 12.9904 22.1375 13.3592C22.2437 13.6373 22.375 14.0529 22.4094 14.8217C22.4469 15.6529 22.4562 15.8998 22.4562 18.0029C22.4562 20.1061 22.4469 20.3529 22.4094 21.1842C22.375 21.9529 22.2469 22.3686 22.1375 22.6467C21.9937 23.0154 21.825 23.2779 21.55 23.5529C21.275 23.8279 21.0125 23.9998 20.6437 24.1404C20.3656 24.2467 19.95 24.3779 19.1812 24.4123C18.35 24.4498 18.1031 24.4592 16 24.4592C13.8969 24.4592 13.65 24.4498 12.8187 24.4123C12.05 24.3779 11.6344 24.2498 11.3563 24.1404C10.9875 23.9967 10.725 23.8279 10.45 23.5529C10.175 23.2779 10.0031 23.0154 9.8625 22.6467C9.75625 22.3686 9.625 21.9529 9.59063 21.1842C9.55313 20.3529 9.54375 20.1061 9.54375 18.0029C9.54375 15.8998 9.55313 15.6529 9.59063 14.8217C9.625 14.0529 9.75312 13.6373 9.8625 13.3592C10.0062 12.9904 10.175 12.7279 10.45 12.4529C10.725 12.1779 10.9875 12.0061 11.3563 11.8654C11.6344 11.7592 12.05 11.6279 12.8187 11.5936C13.65 11.5529 13.8969 11.5467 16 11.5467ZM16 10.1279C13.8625 10.1279 13.5937 10.1373 12.7531 10.1748C11.9156 10.2123 11.3438 10.3467 10.8438 10.5404C10.325 10.7404 9.8875 11.0123 9.45 11.4498C9.0125 11.8873 8.74375 12.3279 8.54062 12.8436C8.34687 13.3436 8.2125 13.9154 8.175 14.7561C8.1375 15.5936 8.12812 15.8623 8.12812 17.9998C8.12812 20.1373 8.1375 20.4061 8.175 21.2467C8.2125 22.0842 8.34687 22.6561 8.54062 23.1592C8.74062 23.6779 9.0125 24.1154 9.45 24.5529C9.8875 24.9904 10.3281 25.2592 10.8438 25.4623C11.3438 25.6561 11.9156 25.7904 12.7562 25.8279C13.5969 25.8654 13.8625 25.8748 16.0031 25.8748C18.1437 25.8748 18.4094 25.8654 19.25 25.8279C20.0875 25.7904 20.6594 25.6561 21.1625 25.4623C21.6813 25.2623 22.1187 24.9904 22.5562 24.5529C22.9937 24.1154 23.2625 23.6748 23.4656 23.1592C23.6594 22.6592 23.7937 22.0873 23.8312 21.2467C23.8688 20.4061 23.8781 20.1404 23.8781 17.9998C23.8781 15.8592 23.8688 15.5936 23.8312 14.7529C23.7937 13.9154 23.6594 13.3436 23.4656 12.8404C23.2656 12.3217 22.9937 11.8842 22.5562 11.4467C22.1187 11.0092 21.6781 10.7404 21.1625 10.5373C20.6625 10.3436 20.0906 10.2092 19.25 10.1717C18.4062 10.1373 18.1375 10.1279 16 10.1279Z" fill="white"/>
<path d="M16 13.9561C13.7687 13.9561 11.9563 15.7654 11.9563 17.9998C11.9563 20.2342 13.7687 22.0436 16 22.0436C18.2312 22.0436 20.0437 20.2311 20.0437 17.9998C20.0437 15.7686 18.2312 13.9561 16 13.9561ZM16 20.6248C14.55 20.6248 13.375 19.4498 13.375 17.9998C13.375 16.5498 14.55 15.3748 16 15.3748C17.45 15.3748 18.625 16.5498 18.625 17.9998C18.625 19.4498 17.45 20.6248 16 20.6248Z" fill="white"/>
<path d="M20.2031 14.7405C20.7243 14.7405 21.1469 14.318 21.1469 13.7968C21.1469 13.2756 20.7243 12.853 20.2031 12.853C19.6819 12.853 19.2594 13.2756 19.2594 13.7968C19.2594 14.318 19.6819 14.7405 20.2031 14.7405Z" fill="white"/>
</g>
<rect x="44" width="32" height="32" rx="16" fill="black"/>
<g clip-path="url(#clip1_1_1075)">
<path d="M66.44 10.6487C66.6741 10.6487 66.8725 10.7301 67.0352 10.8927C67.1979 11.0554 67.2792 11.2538 67.2792 11.4879V24.7975C67.2792 25.0317 67.1979 25.2301 67.0352 25.3927C66.8725 25.5554 66.6741 25.6367 66.44 25.6367H62.6544V19.8599H64.5864L64.86 17.5767H62.6544V16.1127C62.6544 15.7613 62.7325 15.4946 62.8888 15.3127C63.0451 15.1309 63.3312 15.0397 63.7472 15.0391H64.9376V13.0095C64.4171 12.9573 63.8381 12.9311 63.2008 12.9311C62.3293 12.9311 61.6267 13.1882 61.0928 13.7023C60.5589 14.2165 60.2923 14.9418 60.2928 15.8783V17.5759H58.3608V19.8591H60.2928V25.636H53.1304C52.8963 25.636 52.6979 25.5546 52.5352 25.3919C52.3725 25.2293 52.2912 25.0309 52.2912 24.7968V11.4871C52.2912 11.253 52.3725 11.0546 52.5352 10.8919C52.6979 10.7293 52.8963 10.6479 53.1304 10.6479L66.44 10.6487Z" fill="white"/>
</g>
<rect x="88" width="32" height="32" rx="16" fill="black"/>
<g clip-path="url(#clip2_1_1075)">
<path d="M103.966 10.6487C104.981 10.6487 105.951 10.8471 106.874 11.2439C107.798 11.6407 108.595 12.1741 109.265 12.8439C109.935 13.5138 110.468 14.3106 110.865 15.2343C111.262 16.1581 111.46 17.1274 111.46 18.1423C111.46 19.4954 111.125 20.7477 110.455 21.8991C109.785 23.0506 108.875 23.9613 107.723 24.6311C106.572 25.301 105.319 25.636 103.966 25.636C103.225 25.636 102.516 25.5384 101.839 25.3432C102.216 24.7314 102.47 24.1914 102.6 23.7231L103.127 21.6743C103.257 21.9213 103.498 22.1391 103.85 22.3279C104.201 22.5167 104.572 22.6111 104.962 22.6111C105.742 22.6111 106.442 22.3866 107.059 21.9375C107.677 21.4885 108.155 20.8738 108.494 20.0935C108.832 19.3133 109.001 18.4351 109.001 17.4591C109.001 16.3013 108.555 15.2962 107.664 14.4439C106.773 13.5917 105.638 13.1655 104.258 13.1655C103.413 13.1655 102.638 13.3087 101.936 13.5951C101.234 13.8815 100.668 14.2557 100.238 14.7175C99.8091 15.1794 99.4805 15.6802 99.2528 16.2199C99.0251 16.7597 98.9112 17.3029 98.9112 17.8495C98.9112 18.5258 99.0381 19.1178 99.292 19.6255C99.5459 20.1333 99.9264 20.4911 100.434 20.6991C100.525 20.7381 100.603 20.7413 100.668 20.7087C100.733 20.6762 100.779 20.6143 100.805 20.5231C100.896 20.1978 100.948 19.9962 100.961 19.9183C101.013 19.7754 100.981 19.6389 100.863 19.5087C100.525 19.1317 100.356 18.6437 100.356 18.0447C100.356 17.0559 100.698 16.2071 101.381 15.4983C102.064 14.7895 102.958 14.4351 104.064 14.4351C105.04 14.4351 105.801 14.7018 106.347 15.2351C106.893 15.7685 107.167 16.4645 107.167 17.3231C107.167 18.0389 107.07 18.6991 106.874 19.3039C106.679 19.9087 106.399 20.3933 106.035 20.7575C105.671 21.1218 105.255 21.3039 104.786 21.3039C104.396 21.3039 104.077 21.1607 103.83 20.8743C103.583 20.5879 103.505 20.2495 103.596 19.8591C103.648 19.6767 103.717 19.4426 103.801 19.1567C103.885 18.8709 103.957 18.6269 104.015 18.4247C104.074 18.2226 104.129 18.0047 104.181 17.7711C104.233 17.5375 104.259 17.3423 104.259 17.1855C104.259 16.8602 104.175 16.5935 104.006 16.3855C103.837 16.1775 103.589 16.0735 103.264 16.0735C102.861 16.0735 102.522 16.2589 102.249 16.6295C101.975 17.0002 101.839 17.4653 101.839 18.0247C101.839 18.2327 101.855 18.4343 101.888 18.6295C101.921 18.8247 101.956 18.9679 101.995 19.0591L102.054 19.1959C101.52 21.5117 101.195 22.8711 101.078 23.2743C100.974 23.7687 100.935 24.3477 100.961 25.0111C99.6205 24.4128 98.5373 23.4954 97.7112 22.2591C96.8851 21.0229 96.472 19.6503 96.472 18.1415C96.472 16.0727 97.2037 14.3066 98.6672 12.8431C100.131 11.3797 101.897 10.6479 103.966 10.6479L103.966 10.6487Z" fill="white"/>
</g>
<rect x="132" width="32" height="32" rx="16" fill="black"/>
<g clip-path="url(#clip3_1_1075)">
<path d="M155.641 13.3662C155.206 14.0073 154.685 14.5507 154.076 14.9966C154.076 15.0403 154.081 15.1083 154.092 15.2006C154.103 15.2929 154.108 15.3609 154.108 15.4046C154.108 16.2521 153.983 17.0998 153.733 17.9478C153.483 18.7958 153.102 19.6054 152.592 20.3766C152.082 21.1478 151.476 21.8323 150.774 22.4302C150.073 23.0281 149.231 23.5062 148.248 23.8646C147.265 24.223 146.208 24.4022 145.078 24.4022C143.317 24.4022 141.709 23.9294 140.253 22.9838C140.557 23.0057 140.807 23.0166 141.002 23.0166C142.47 23.0166 143.779 22.571 144.931 21.6798C144.246 21.6691 143.635 21.4601 143.098 21.0526C142.56 20.6451 142.182 20.1209 141.965 19.4798C142.149 19.5235 142.35 19.5454 142.568 19.5454C142.861 19.5454 143.138 19.5019 143.399 19.415C142.671 19.263 142.068 18.899 141.59 18.323C141.111 17.747 140.872 17.0841 140.872 16.3342V16.3014C141.285 16.519 141.758 16.6385 142.29 16.6598C141.866 16.3771 141.53 16.0049 141.28 15.543C141.03 15.0811 140.905 14.5841 140.905 14.0518C140.905 13.5083 141.041 12.9758 141.312 12.4542C142.105 13.443 143.064 14.2227 144.189 14.7934C145.314 15.3641 146.533 15.6819 147.848 15.747C147.772 15.4755 147.734 15.2363 147.734 15.0294C147.734 14.1601 148.043 13.4185 148.662 12.8046C149.282 12.1907 150.037 11.8838 150.928 11.8838C151.363 11.8838 151.781 11.9707 152.183 12.1446C152.585 12.3185 152.928 12.563 153.21 12.8782C153.928 12.7369 154.596 12.4814 155.215 12.1118C154.987 12.851 154.525 13.4323 153.83 13.8558C154.493 13.7689 155.096 13.6059 155.639 13.367L155.641 13.3662Z" fill="white"/>
</g>
<defs>
<clipPath id="clip0_1_1075">
<rect width="16" height="16" fill="white" transform="translate(8 10)"/>
</clipPath>
<clipPath id="clip1_1_1075">
<rect width="16" height="16" fill="white" transform="translate(52 10)"/>
</clipPath>
<clipPath id="clip2_1_1075">
<rect width="16" height="16" fill="white" transform="translate(96 10)"/>
</clipPath>
<clipPath id="clip3_1_1075">
<rect width="16" height="16" fill="white" transform="translate(140 10)"/>
</clipPath>
</defs>
</svg>
