<svg width="56" height="16" viewBox="0 0 56 16" fill="none" xmlns="http://www.w3.org/2000/svg">
<g clip-path="url(#clip0_1_822)">
<g clip-path="url(#clip1_1_822)">
<path d="M44.3291 1.04495C44.6552 0.982783 44.963 0.923678 45.2717 0.866611C46.1502 0.70458 47.0327 0.574141 47.9213 0.48854C48.3452 0.448796 48.7702 0.418225 49.1951 0.386634C49.4427 0.368291 49.6914 0.3367 49.939 0.339757C50.5864 0.327658 51.2256 0.485791 51.7927 0.798334C51.9562 0.888687 52.1145 0.98838 52.2666 1.09692C52.463 1.25933 52.6181 1.46611 52.719 1.7002C52.8963 2.05891 53.0594 2.42475 53.2163 2.79263C53.3166 3.03284 53.3588 3.29328 53.3396 3.55285C53.3182 3.88201 53.2897 4.21014 53.2632 4.53828C53.2499 4.70235 53.145 4.82667 53.0736 4.96628C53.0357 5.04374 52.991 5.11773 52.9402 5.18742C52.8935 5.2529 52.8379 5.31155 52.7751 5.36168C52.6191 5.47581 52.4541 5.57568 52.2981 5.68778C52.1753 5.7697 52.0363 5.82427 51.8905 5.84777L50.3416 6.1596L50.1836 6.19221C50.1939 6.22911 50.2068 6.26521 50.2223 6.30023C50.4431 6.67525 50.6656 7.0489 50.8898 7.4212C51.4238 8.31288 51.968 9.19844 52.4928 10.0962C53.1684 11.2518 53.8318 12.4146 54.4942 13.5773C54.7582 14.039 55.0037 14.5108 55.2616 14.9775C55.285 15.0203 55.3013 15.0672 55.3319 15.1375C55.2493 15.1375 55.1912 15.1375 55.1281 15.1375L53.5618 15.1263C53.3794 15.1263 53.197 15.1212 53.0135 15.1202C52.9214 15.1227 52.8361 15.0719 52.7944 14.9897C52.2469 14.1127 51.6962 13.2376 51.1425 12.3647C50.8368 11.8847 50.524 11.4129 50.2254 10.9278C50.0216 10.5996 49.8524 10.2542 49.668 9.91586C49.1245 8.90903 48.5779 7.90185 48.0283 6.89435C47.9264 6.71703 47.8245 6.54481 47.7226 6.36953C47.6994 6.31953 47.6408 6.29696 47.5901 6.31858C47.5768 6.40825 47.5575 6.50608 47.5493 6.60391C47.4698 7.54349 47.3873 8.48306 47.316 9.42365C47.2712 10.0521 47.2607 10.6824 47.2844 11.312C47.3109 12.1639 47.3343 13.0158 47.372 13.8678C47.3954 14.3946 47.4413 14.9205 47.4739 15.4463C47.479 15.5217 47.4811 15.5971 47.4851 15.6786C47.4497 15.691 47.4132 15.7002 47.3761 15.7061L46.4661 15.7734C46.2337 15.7907 46.0014 15.8142 45.768 15.8223C45.6469 15.8206 45.526 15.8107 45.4062 15.7928C45.3288 15.7836 45.3125 15.7204 45.3043 15.6593C45.2911 15.5482 45.2799 15.4371 45.2728 15.326C45.2167 14.4446 45.1708 13.5631 45.1036 12.6826C45.0526 11.9845 44.9772 11.2885 44.9181 10.5915C44.8682 10.0106 44.8233 9.42874 44.7785 8.84686C44.7204 8.09785 44.6674 7.34986 44.6053 6.60493C44.5472 5.9079 44.4952 5.20984 44.4106 4.51484C44.3444 3.96659 44.3953 3.42037 44.378 2.87416C44.3607 2.3524 44.3464 1.82962 44.3311 1.30786C44.3291 1.22328 44.3291 1.1387 44.3291 1.04495ZM49.455 4.53624C49.6241 4.52198 49.7841 4.53624 49.9421 4.46083C50.1 4.38542 50.2233 4.23256 50.3864 4.15511C50.4273 4.13526 50.4651 4.10951 50.4985 4.07868C50.6544 3.94111 50.8042 3.8015 50.9622 3.66087C51.0437 3.58648 51.1609 3.52126 51.1914 3.42751C51.222 3.33375 51.1568 3.2135 51.1446 3.10345C51.1257 2.95772 51.053 2.82433 50.9408 2.72945C50.6935 2.51206 50.429 2.31508 50.15 2.14043C50.1129 2.11412 50.069 2.09924 50.0236 2.09763C49.5722 2.10782 49.1217 2.06095 48.6703 2.11292C48.1771 2.16897 47.6818 2.20973 47.1865 2.25865C47.1172 2.26476 47.048 2.27495 46.9593 2.28616C46.9855 3.02498 47.0518 3.76183 47.158 4.49344C47.1692 4.57904 48.1231 4.68197 48.2331 4.6891C48.6346 4.71662 49.0219 4.58719 49.4162 4.54236L49.455 4.53624Z" fill="black" stroke="black" stroke-width="0.305718"/>
<path d="M34.9619 0.478427C35.1657 0.462122 35.3603 0.443779 35.557 0.429512C36.1837 0.382635 36.8115 0.327606 37.4392 0.292958C38.4725 0.227738 39.5058 0.172709 40.5382 0.107489C40.8571 0.0871083 41.174 0.0402316 41.493 0.0188313C41.7356 0.000488281 41.9791 0.000488281 42.2216 0.000488281C42.4255 0.000488281 42.6354 0.0310601 42.8524 0.0483841C42.9146 0.841212 42.9197 1.62079 42.9177 2.4177C42.8484 2.4177 42.7944 2.4177 42.7414 2.4177C42.0973 2.39528 41.4533 2.36471 40.8052 2.35146C40.0541 2.33413 39.3031 2.33311 38.552 2.32292C38.2626 2.32292 37.9742 2.30968 37.6848 2.30356C37.6491 2.30356 37.6135 2.30356 37.5829 2.30356C37.5075 2.30356 37.4728 2.34127 37.481 2.41872C37.4942 2.61641 37.5044 2.81411 37.5187 3.01079C37.5574 3.54274 37.6053 4.07265 37.6349 4.6046C37.6726 5.27819 37.695 5.95281 37.7235 6.62743C37.7235 6.65189 37.7286 6.67634 37.7327 6.72016L41.2719 6.85468C41.3442 7.54356 41.3391 8.22124 41.3911 8.92133C40.261 8.81943 39.1543 8.71752 38.0282 8.67064C38.0212 8.71893 38.0171 8.76759 38.016 8.81637C38.07 9.60206 38.0262 10.3888 38.0374 11.1755C38.0374 11.4598 38.0486 11.7431 38.0567 12.0274C38.0567 12.1568 38.0618 12.1609 38.1882 12.1844C38.4379 12.2312 38.6875 12.273 38.9372 12.3158C39.5486 12.4177 40.1662 12.5319 40.7837 12.6266C41.1435 12.6817 41.5083 12.7082 41.8711 12.7469L42.6435 12.8274C42.6716 12.8329 42.6993 12.8407 42.7261 12.8508C42.7882 13.1117 42.8005 14.8533 42.7383 15.107C42.6364 15.0917 42.5243 15.0785 42.4153 15.0622C41.2678 14.8869 40.12 14.7116 38.9719 14.5363C38.1191 14.4068 37.2597 14.3265 36.3977 14.2958C36.1399 14.2867 35.8811 14.2958 35.6222 14.2887C35.5825 14.2887 35.5437 14.2826 35.4908 14.2775C35.4908 14.195 35.4999 14.1206 35.5009 14.0462C35.5122 13.3563 35.5295 12.6664 35.5315 11.9765C35.5315 11.3426 35.5234 10.7088 35.5081 10.0739C35.4928 9.43901 35.4694 8.77561 35.4367 8.12748C35.4072 7.51605 35.3624 6.90461 35.3216 6.29318C35.2798 5.64506 35.234 4.99693 35.1912 4.34881C35.1596 3.88412 35.1412 3.41739 35.0964 2.95372C35.021 2.15987 34.9863 1.36501 34.9629 0.569123C34.9608 0.54059 34.9619 0.516132 34.9619 0.478427Z" fill="black"/>
<path d="M10.7175 2.71621C11.4726 2.78958 12.2216 2.79875 12.9757 2.90677C12.0585 6.37157 11.1475 9.82312 10.2314 13.2869C10.052 13.2696 9.891 13.2584 9.73101 13.239C9.18683 13.1738 8.63959 13.1371 8.09134 13.1259C7.99962 13.1371 7.91332 13.0801 7.88753 12.9914C7.81823 12.8263 7.73671 12.6663 7.65416 12.5073C7.45035 12.117 7.34845 11.6921 7.22208 11.2753C6.98872 10.5385 6.69421 9.82516 6.39257 9.11488C6.3739 9.08287 6.35205 9.05282 6.32735 9.0252C6.09704 9.763 5.87081 10.4753 5.65171 11.1887C5.43262 11.902 5.22167 12.6153 4.9985 13.3531C4.27802 13.3715 3.54022 13.2869 2.79427 13.2747C2.75045 13.1361 2.71377 13.0138 2.673 12.8925C2.34792 11.9387 2.08908 10.9665 1.84349 9.98923C1.63764 9.15462 1.42669 8.31899 1.22288 7.48133C1.01907 6.64366 0.815259 5.79478 0.622657 4.951C0.429715 4.12828 0.241868 3.30488 0.0591172 2.4808C0.0396197 2.34242 0.031101 2.20271 0.0336407 2.06299L2.04832 2.08235C2.57823 4.08684 3.18763 6.04751 3.86632 8.02652C3.9509 7.88793 4.07013 7.82271 4.09459 7.67902C4.32999 6.43169 4.57457 5.1864 4.80793 3.9401C4.90984 3.41324 4.99952 2.88435 5.09531 2.35648C5.10346 2.31266 5.11365 2.26986 5.12588 2.21585C5.19721 2.21585 5.26345 2.20871 5.32969 2.21585C5.69349 2.23317 6.05628 2.25661 6.41906 2.26884C6.52097 2.26884 6.53524 2.33813 6.56173 2.40539C6.70746 2.7855 6.84911 3.16867 6.99993 3.54776C7.33724 4.39561 7.67964 5.24041 8.01899 6.08623C8.27273 6.72009 8.52852 7.35394 8.77615 7.9878C8.8108 8.07442 8.85258 8.159 8.89334 8.25071C8.96364 8.21904 9.01417 8.1552 9.02887 8.07951C9.14301 7.68718 9.25409 7.29382 9.37637 6.90454C9.66273 5.98738 9.9552 5.07023 10.2456 4.15308C10.3791 3.73221 10.5157 3.31235 10.6533 2.8925C10.6726 2.8334 10.7001 2.77735 10.7175 2.71621Z" fill="black"/>
<path d="M26.5832 4.79018C24.8481 4.48665 23.0967 4.28555 21.3381 4.18792C21.1852 3.11179 21.0324 2.03668 20.8785 0.943233C21.0222 0.93508 21.1567 0.922852 21.2861 0.922852C21.9393 0.922852 22.5936 0.922852 23.2468 0.928966C24.3412 0.942214 25.4367 0.950366 26.5312 0.983995C27.1345 1.00234 27.7347 1.07367 28.337 1.11138C28.8027 1.14093 29.2684 1.15622 29.7351 1.17762C30.4485 1.20921 31.1618 1.24487 31.8751 1.27035C32.3663 1.28767 32.8585 1.28971 33.3497 1.29888C33.417 1.29888 33.4853 1.29888 33.5535 1.305C33.5994 1.46907 33.7502 4.18078 33.7166 4.30511C32.2288 4.35097 30.7287 4.28575 29.2236 4.47529C29.2236 4.73515 29.2236 4.97565 29.2236 5.21615C29.2388 6.34323 29.249 7.46929 29.2735 8.59535C29.3041 10.0139 29.3469 11.4324 29.3856 12.8509C29.3988 13.3666 29.4162 13.8832 29.4294 14.3999C29.4294 14.4916 29.4233 14.5844 29.4202 14.6883C29.3601 14.6883 29.3122 14.6975 29.2643 14.6954C28.5622 14.6761 27.859 14.6608 27.1569 14.6333C26.8155 14.62 26.7992 14.6047 26.7829 14.2664C26.7574 13.7385 26.7442 13.2096 26.733 12.6818C26.7044 11.3815 26.6786 10.0811 26.6555 8.78082C26.6345 7.57357 26.6151 6.36633 26.5974 5.15908C26.5974 5.03985 26.5903 4.92266 26.5832 4.79018Z" fill="black"/>
<path d="M23.417 13.2168C23.315 12.9467 23.2029 12.6767 23.0929 12.4076C22.8269 11.7605 22.565 11.1124 22.2929 10.4714C21.9872 9.74992 21.6591 9.03861 21.3625 8.31406C21.0762 7.61601 20.8133 6.90674 20.5473 6.20053C20.1098 5.03745 19.6767 3.873 19.248 2.7072C19.2318 2.64134 19.1741 2.59403 19.1063 2.59102C18.9392 2.57268 18.7741 2.54517 18.607 2.52479C17.8468 2.42899 17.0917 2.28429 16.3243 2.24353C16.1531 2.23537 15.9809 2.22926 15.8148 2.22314C15.8005 2.25474 15.7934 2.27002 15.7883 2.28531C15.5254 3.03941 15.2604 3.79351 14.9995 4.54966C14.7957 5.15226 14.5919 5.75588 14.3881 6.36052C14.0559 7.35716 13.7288 8.35686 13.3965 9.3535C13.2016 9.93708 13.0042 10.5196 12.8045 11.1012C12.5528 11.8247 12.2949 12.5462 12.0422 13.2687C12.0025 13.3829 11.976 13.5021 11.9403 13.6366C12.0188 13.6458 12.0616 13.655 12.1054 13.656C12.3092 13.656 12.513 13.656 12.7097 13.656C13.0786 13.656 13.4475 13.6488 13.8164 13.6488C13.8957 13.6592 13.9716 13.6136 13.9998 13.5388C14.061 13.4073 14.1384 13.283 14.2098 13.1566C14.5797 12.4983 14.9577 11.8441 15.3195 11.1817C15.455 10.932 15.5875 10.6793 15.719 10.4276L18.8781 10.2961L19.7331 10.3746L20.7327 13.2483C20.7827 13.392 20.7837 13.3961 20.9366 13.3971C21.4227 13.3971 21.9098 13.3971 22.3959 13.4022C22.7148 13.4022 23.0338 13.4022 23.3528 13.4022C23.3894 13.4022 23.4261 13.4022 23.4832 13.3951C23.4516 13.3187 23.4384 13.2667 23.417 13.2168ZM16.9041 8.18974C16.9321 8.15958 16.9702 8.14072 17.0111 8.13674C17.0376 8.13674 17.0652 8.07254 17.0764 8.03484C17.1263 7.85243 17.1701 7.66696 17.218 7.48251C17.3953 6.79498 17.5733 6.10712 17.752 5.41891C17.7775 5.31701 17.807 5.22122 17.8407 5.10301C17.9065 5.17326 17.9517 5.26038 17.9711 5.35471C18.2768 6.22397 18.6182 7.08711 18.8883 7.96656C18.9127 8.04503 18.9392 8.12248 18.9637 8.19993L16.9041 8.18974Z" fill="black"/>
</g>
</g>
<defs>
<clipPath id="clip0_1_822">
<rect width="55.6406" height="16" fill="white"/>
</clipPath>
<clipPath id="clip1_1_822">
<rect width="55.6406" height="15.9992" fill="white" transform="translate(0 0.000488281)"/>
</clipPath>
</defs>
</svg>
