<svg width="81" height="81" viewBox="0 0 81 81" fill="none" xmlns="http://www.w3.org/2000/svg">
<g clip-path="url(#clip0_1_875)">
<g clip-path="url(#clip1_1_875)">
<path d="M31 40C39.4689 42.3987 45.4848 51.0478 44.7609 60C45.2128 52.6367 48.8671 43.8351 57 43.0811" stroke="black" stroke-width="2.5" stroke-linecap="round" stroke-linejoin="round"/>
<path fill-rule="evenodd" clip-rule="evenodd" d="M39.9997 44.1708C40.0442 44.8739 34.5558 46.2711 33.6483 46.359C29.8339 46.726 24.6263 47.6421 21.0001 46.2711C13.4102 43.4015 11.5025 35.3009 10.0027 28.0167C9.7775 26.9194 23.4908 27.078 24.8367 27.0209C36.6015 26.5207 39.3842 35.0907 39.9997 44.1708ZM48.3208 47.8819C48.209 47.7846 48.1141 47.6698 48.0577 47.5291C47.9468 47.2503 48.0166 46.9346 48.0935 46.6429C48.8247 43.862 50.9626 38.717 52.6299 36.3677C57.2781 29.8189 64.7542 31.8645 71.4419 34.5879C71.6576 34.6749 71.8966 34.7907 71.9744 35.0166C72.0362 35.2 71.9744 35.4 71.9127 35.5824C70.8406 38.7596 67.5598 43.0471 65.7163 45.8215C61.3159 52.4453 55.064 52.1481 48.6466 48.1152C48.5347 48.0449 48.4211 47.9698 48.3208 47.8819Z" stroke="black" stroke-width="2.5"/>
<path fill-rule="evenodd" clip-rule="evenodd" d="M8.68066 16.1826C11.6895 12.7891 13.608 10.9091 16.175 9.51718C25.7213 4.34119 36.5035 1.14747 47.2045 2.20031C57.9056 3.25315 68.4619 8.96832 74.1267 18.5402C81.9398 31.741 79.195 48.9451 74.0055 63.4958C72.7633 66.979 66.9406 75.7681 58.4681 77.8318C51.5405 79.5192 47.4893 79.2036 40.3841 79.5332C32.2758 79.909 21.5853 75.3992 14.8994 70.5771C8.31863 65.8307 2.43192 57.5131 1.84668 49.1729C0.687175 32.6488 2.96517 21.652 8.68066 16.1826Z" stroke="black" stroke-width="2.5"/>
</g>
</g>
<defs>
<clipPath id="clip0_1_875">
<rect width="81" height="81" fill="white"/>
</clipPath>
<clipPath id="clip1_1_875">
<rect width="81" height="81" fill="white"/>
</clipPath>
</defs>
</svg>
