<svg width="81" height="83" viewBox="0 0 81 83" fill="none" xmlns="http://www.w3.org/2000/svg">
<g clip-path="url(#clip0_1_887)">
<g clip-path="url(#clip1_1_887)">
<path fill-rule="evenodd" clip-rule="evenodd" d="M8.9442 14.4868C11.0914 12.4591 13.608 10.9091 16.175 9.51718C25.7213 4.34119 36.5035 1.14747 47.2045 2.20031C57.9056 3.25315 68.4619 8.96832 74.1267 18.5402C81.9398 31.741 79.195 48.9451 74.0055 63.4958C72.7633 66.979 66.9406 75.7681 58.4681 77.8318C51.5405 79.5192 44.4722 80.584 37.3669 80.9136C29.2587 81.2895 20.648 80.5901 13.9621 75.7681C7.38134 71.0216 2.30453 63.036 2.08072 54.6781C1.52777 34.0277 3.81559 20.6306 8.9442 14.4868Z" stroke="black" stroke-width="2.5"/>
<path d="M41 71.427V29" stroke="black" stroke-width="2.5" stroke-linecap="round" stroke-linejoin="round"/>
<path fill-rule="evenodd" clip-rule="evenodd" d="M39.8 46.2451C39.585 47.6261 32.19 45.5061 31.49 45.2181C29.121 44.2401 27.151 43.0361 26.149 40.6931C25.436 39.0271 25.075 37.1421 25.001 35.3371C24.904 32.9871 31.877 34.3891 34.501 34.6811C39.581 35.2451 40.524 41.5651 39.8 46.2451Z" stroke="black" stroke-width="2.5"/>
<path fill-rule="evenodd" clip-rule="evenodd" d="M41.2152 46.2455C41.4312 47.6265 49.3912 46.8225 50.0892 46.5345C52.4582 45.5585 53.8642 43.0365 54.8662 40.6925C55.5792 39.0275 55.9402 37.1415 56.0142 35.3375C56.1112 32.9865 49.1382 34.3895 46.5142 34.6815C41.4342 35.2455 40.4912 41.5655 41.2152 46.2455Z" stroke="black" stroke-width="2.5"/>
<path fill-rule="evenodd" clip-rule="evenodd" d="M40.4059 28.6042C41.6049 29.3232 46.0819 22.6922 46.3069 21.9712C47.0729 19.5262 46.0349 16.8322 44.8759 14.5612C44.0519 12.9492 42.8339 11.4652 41.4939 10.2522C39.7499 8.67422 36.3659 14.9292 34.9109 17.1322C32.0929 21.3982 36.3469 26.1662 40.4059 28.6042Z" stroke="black" stroke-width="2.5"/>
<path fill-rule="evenodd" clip-rule="evenodd" d="M39.8 64.2451C39.585 65.6261 31.624 64.8231 30.926 64.5351C28.557 63.5581 27.151 61.0361 26.149 58.6931C25.436 57.0271 25.075 55.1421 25.001 53.3371C24.904 50.9871 31.877 52.3891 34.501 52.6811C39.581 53.2451 40.524 59.5651 39.8 64.2451Z" stroke="black" stroke-width="2.5"/>
<path fill-rule="evenodd" clip-rule="evenodd" d="M41.1429 65.0069C41.3589 66.3879 49.3189 65.5839 50.0169 65.2959C52.3859 64.3199 53.7919 61.7979 54.7939 59.4539C55.5069 57.7889 55.8679 55.9029 55.9419 54.0989C56.0389 51.7479 50.1369 53.8559 47.5119 54.1479C42.4319 54.7119 40.4189 60.3269 41.1429 65.0069Z" stroke="black" stroke-width="2.5"/>
<path d="M9 70L64 9" stroke="black" stroke-width="2.5" stroke-linecap="square"/>
</g>
</g>
<defs>
<clipPath id="clip0_1_887">
<rect width="81" height="83" fill="white"/>
</clipPath>
<clipPath id="clip1_1_887">
<rect width="81" height="83" fill="white"/>
</clipPath>
</defs>
</svg>
